{
    "asset" : {
        "generator" : "Khronos glTF Blender I/O v1.3.48",
        "version" : "2.0"
    },
    "scene" : 0,
    "scenes" : [
        {
            "name" : "Scene",
            "nodes" : [
                0
            ]
        }
    ],
    "nodes" : [
        {
            "mesh" : 0,
            "name" : "Mball.003",
            "scale" : [
                1.5281503200531006,
                1.6456882953643799,
                1.5281503200531006
            ],
            "translation" : [
                0,
                10.161458969116211,
                0
            ]
        }
    ],
    "materials" : [
        {
            "doubleSided" : true,
            "emissiveFactor" : [
                0,
                0,
                0
            ],
            "name" : "Material.001",
            "pbrMetallicRoughness" : {
                "baseColorFactor" : [
                    0.800000011920929,
                    0.800000011920929,
                    0.800000011920929,
                    1
                ],
                "metallicFactor" : 1,
                "roughnessFactor" : 0.3068181872367859
            }
        }
    ],

    "meshes" : [
        {
            "name" : "Mesh.005",
            "primitives" : [
                {
                    "attributes" : {
                        "POSITION" : 0,
                        "NORMAL" : 1
                    },
                    "indices" : 2,
                    "material" : 0
                }
            ]
        }
    ],
    "accessors" : [
        {
            "bufferView" : 0,
            "componentType" : 5126,
            "count" : 12738,
            "max" : [
                4.372503757476807,
                -5.147789001464844,
                3.0807714462280273
            ],
            "min" : [
                -3.9261457920074463,
                -7.201401710510254,
                -3.1915223598480225
            ],
            "type" : "VEC3"
        },
        {
            "bufferView" : 1,
            "componentType" : 5126,
            "count" : 12738,
            "type" : "VEC3"
        },
        {
            "bufferView" : 2,
            "componentType" : 5123,
            "count" : 76416,
            "type" : "SCALAR"
        }
    ],
    "bufferViews" : [
        {
            "buffer" : 0,
            "byteLength" : 152856,
            "byteOffset" : 0
        },
        {
            "buffer" : 0,
            "byteLength" : 152856,
            "byteOffset" : 152856
        },
        {
            "buffer" : 0,
            "byteLength" : 152832,
            "byteOffset" : 305712
        }
    ],
    "buffers" : [
        {
            "byteLength" : 458544,
            "uri" : "corpusluteum232.bin"
        }
    ]
}
